<?xml version="1.0" encoding="utf-8"?>
<svg xmlns="http://www.w3.org/2000/svg" viewBox="0 0 121 121">
  <defs>
    <style>.cls-1{fill:#e4e8f8;}.cls-2,.cls-3{fill:none;stroke:#204ecf;}.cls-2{stroke-linejoin:round;}.cls-3{stroke-miterlimit:10;}</style>
  </defs>
  <title>Asset 366</title>
  <g data-name="Layer 2" id="Layer_2">
    <g id="Icons">
      <rect class="cls-1" height="19.58" width="22.36" x="4.25" y="49.58"/>
      <rect class="cls-1" height="6.32" width="22.36" x="4.25" y="71.8"/>
      <rect class="cls-1" height="28.54" width="8.47" x="108.28" y="49.58"/>
      <rect class="cls-1" height="28.54" width="11.25" x="94.39" y="49.58"/>
      <rect class="cls-1" height="2.39" width="90.98" x="15.01" y="91.1"/>
      <rect class="cls-1" height="7.44" width="17.56" x="51.72" y="102.06"/>
      <line class="cls-2" x1="105.99" x2="105.99" y1="81.62" y2="93.49"/>
      <path class="cls-2" d="M15,39.83V33a3,3,0,0,1,3-3H103a3,3,0,0,1,3,3v6.8"/>
      <line class="cls-2" x1="15.01" x2="15.01" y1="93.49" y2="81.62"/>
      <line class="cls-2" x1="69.28" x2="69.28" y1="102.06" y2="114.31"/>
      <line class="cls-2" x1="51.72" x2="51.72" y1="114.31" y2="102.06"/>
      <rect class="cls-3" height="2.4" width="45.11" x="37.94" y="118.1"/>
      <path class="cls-2" d="M106,93.49V99a3,3,0,0,1-3,3H18a3,3,0,0,1-3-3V93.49Z"/>
      <rect class="cls-1" height="21.39" width="42.71" x="48.64" y="46"/>
      <rect class="cls-1" height="36.49" width="16.35" x="29.66" y="46"/>
      <rect class="cls-1" height="12.46" width="14.59" x="48.64" y="70.03"/>
      <rect class="cls-1" height="12.46" width="25.47" x="65.87" y="70.03"/>
      <path class="cls-3" d="M26.61,43H94.39a0,0,0,0,1,0,0V83.12a2.4,2.4,0,0,1-2.4,2.4H29a2.4,2.4,0,0,1-2.4-2.4V43A0,0,0,0,1,26.61,43Z"/>
      <path class="cls-3" d="M29,39.08H92a2.4,2.4,0,0,1,2.4,2.4V43a0,0,0,0,1,0,0H26.61a0,0,0,0,1,0,0v-1.5A2.4,2.4,0,0,1,29,39.08Z"/>
      <path class="cls-3" d="M26.61,81.62H2.45a2,2,0,0,1-1.95-2V46.14h23"/>
      <path class="cls-3" d="M23.5,43h-21a2,2,0,0,0-1.95,2v1.22"/>
      <path class="cls-3" d="M94.39,81.62h24.16a2,2,0,0,0,2-2V46.14h-23"/>
      <path class="cls-3" d="M97.5,43h21a2,2,0,0,1,2,2v1.22"/>
      <path class="cls-1" d="M60.47,13.66A13.25,13.25,0,0,1,73.72,26.91h3.93a17.18,17.18,0,1,0-34.35,0h3.92A13.25,13.25,0,0,1,60.47,13.66Z"/>
      <path class="cls-2" d="M87.3,26.91a24.6,24.6,0,0,0-.16-2.56l-4.07-1.46a25.44,25.44,0,0,0-1.79-5.65l2.49-3.53a30.51,30.51,0,0,0-3.19-4.59l-4.22,1.21a27.74,27.74,0,0,0-4.75-3.6V2.37A32.44,32.44,0,0,0,66.3.56L63.65,4a22.88,22.88,0,0,0-6,0L55.07.5a22,22,0,0,0-5.31,1.68l-.11,4.39A24.51,24.51,0,0,0,44.75,10L40.61,8.68a24.55,24.55,0,0,0-3.3,4.53l2.5,3.57A20.06,20.06,0,0,0,38,22.46l-4.15,1.43c-.09.9-.14,1.82-.14,2.75"/>
      <path class="cls-2" d="M47.22,26.91a13.25,13.25,0,1,1,26.5,0"/>
    </g>
  </g>
</svg>